#tb 0: 1/1000
0,          0,          0,        0,    66150, b65725c68978bdaaafdf735dfbafa9e3
0,         33,         33,        0,    66150, 35be2f16bd5dedc9d3f7a016f0d71701
0,         66,         66,        0,    66150, 8c2873a97b51510d7449869e24a348f5
0,        100,        100,        0,    66150, 724a30e8ae539e797db8889dc08aec5e
0,        133,        133,        0,    66150, e3ae1246a63ea22afd026bfb859fe165
0,        166,        166,        0,    66150, 7e1fa363cf3f44c7a3019f29c14a6da4
0,        200,        200,        0,    66150, c6f26619ab5687a2a698c8766b79f2eb
0,        233,        233,        0,    66150, be5b8c50a772afe95d72bf3cc7c4fd2f
0,        266,        266,        0,    66150, 9eab1417ac249ce31c79750143d52084
0,        300,        300,        0,    66150, 9d2455048dbc3cdc2343a818c5a2bcb1
